<?xml version="1.0" encoding="utf-8"?><svg viewBox="0 0 23 19" xmlns="http://www.w3.org/2000/svg" xmlns:xlink="http://www.w3.org/1999/xlink"><style>:root>svg{display:none}:root>svg:target{display:block}</style><svg fill="none" viewBox="0 0 10 9" id="i-basket" xmlns="http://www.w3.org/2000/svg"><path d="M6.683 0l1.606 2.85H10v1.025h-.584L9.038 8.53a.517.517 0 01-.16.335A.493.493 0 018.54 9H1.46a.493.493 0 01-.338-.135.517.517 0 01-.16-.335L.583 3.875H0V2.85h1.711L3.317 0l.866.512L2.866 2.85h4.268L5.816.512 6.683 0zm1.73 3.875H1.586l.334 4.1h6.16l.333-4.1zM5.5 4.9v2.05h-1V4.9h1zm-2 0v2.05h-1V4.9h1zm4 0v2.05h-1V4.9h1z" fill="url(#apaint0_linear_26_13)"/><defs><linearGradient id="apaint0_linear_26_13" x1="-.145" y1=".29" x2="11.611" y2="4.488" gradientUnits="userSpaceOnUse"><stop offset="0" stop-color="#0047FF"/><stop offset="1" stop-color="#EC00E2"/></linearGradient></defs></svg><svg fill="none" viewBox="0 0 11 13" id="i-btn-card" xmlns="http://www.w3.org/2000/svg"><path d="M2.139 0H8.86c.095 0 .189.023.273.069.085.045.16.11.216.191L11 2.6v9.75a.672.672 0 01-.179.46.593.593 0 01-.432.19H.61a.593.593 0 01-.432-.19.672.672 0 01-.179-.46V2.6L1.65.26a.622.622 0 01.216-.191A.581.581 0 012.139 0zm7.333 2.6l-.916-1.3H2.444l-.916 1.3h7.944zM3.667 5.2H2.444v1.3c0 .862.322 1.689.895 2.298.573.61 1.35.952 2.161.952.81 0 1.588-.342 2.16-.952.574-.61.896-1.436.896-2.298V5.2H7.333v1.3c0 .517-.193 1.013-.537 1.379A1.78 1.78 0 015.5 8.45a1.78 1.78 0 01-1.296-.571A2.015 2.015 0 013.667 6.5V5.2z" fill="#fff"/></svg><svg fill="none" viewBox="0 0 14 13" id="i-btn-wl" xmlns="http://www.w3.org/2000/svg"><path d="M7 1.075a4.185 4.185 0 015.77.16 4.235 4.235 0 01.165 5.793L7 13 1.065 7.028a4.235 4.235 0 01.165-5.792A4.186 4.186 0 017 1.076zM11.78 2.23a2.79 2.79 0 00-3.843-.107L7 2.964l-.935-.842a2.79 2.79 0 00-3.846.109 2.822 2.822 0 00-.134 3.833L7 11.01l4.914-4.944a2.823 2.823 0 00-.135-3.836z" fill="#3E3E3E"/></svg><svg fill="none" viewBox="0 0 18 16" id="i-burger" xmlns="http://www.w3.org/2000/svg"><path d="M0 0h18v2H0V0zm6 7h12v2H6V7zm-6 7h18v2H0v-2z" fill="#1F170A"/></svg><svg fill="none" viewBox="0 0 13 15" id="i-card" xmlns="http://www.w3.org/2000/svg"><path d="M2.528 0h7.944a.7.7 0 01.323.08.73.73 0 01.255.22L13 3v11.25c0 .199-.076.39-.211.53a.709.709 0 01-.511.22H.722a.709.709 0 01-.51-.22.765.765 0 01-.212-.53V3L1.95.3a.73.73 0 01.255-.22.7.7 0 01.323-.08zm8.666 3l-1.083-1.5H2.89L1.806 3h9.388zm-6.86 3H2.888v1.5c0 .995.38 1.948 1.058 2.652A3.545 3.545 0 006.5 11.25c.958 0 1.876-.395 2.553-1.098A3.825 3.825 0 0010.111 7.5V6H8.667v1.5c0 .597-.229 1.169-.635 1.591A2.127 2.127 0 016.5 9.75a2.127 2.127 0 01-1.532-.659A2.295 2.295 0 014.333 7.5V6z" fill="#686868"/></svg><svg fill="none" viewBox="0 0 16 15" id="i-like" xmlns="http://www.w3.org/2000/svg"><path d="M8 1.24a4.75 4.75 0 016.594.186 4.92 4.92 0 01.189 6.683L7.999 15 1.217 8.109a4.921 4.921 0 01.189-6.683A4.751 4.751 0 018 1.24z" fill="#686868"/></svg><svg fill="none" viewBox="0 0 14 13" id="i-like-empty" xmlns="http://www.w3.org/2000/svg"><path d="M7 1.075a4.185 4.185 0 015.77.16 4.235 4.235 0 01.165 5.793L7 13 1.065 7.028a4.235 4.235 0 01.165-5.792A4.186 4.186 0 017 1.076zM11.78 2.23a2.79 2.79 0 00-3.843-.107L7 2.964l-.935-.842a2.79 2.79 0 00-3.846.109 2.822 2.822 0 00-.134 3.833L7 11.01l4.914-4.944a2.823 2.823 0 00-.135-3.836z" fill="#3E3E3E"/></svg><svg fill="none" viewBox="0 0 11 15" id="i-mouse" xmlns="http://www.w3.org/2000/svg"><path d="M4.91.5h1.18c1.385 0 2.128.195 2.8.56a3.783 3.783 0 011.56 1.588c.359.685.55 1.44.55 2.85v4.003c0 1.41-.191 2.166-.55 2.85a3.783 3.783 0 01-1.56 1.588c-.672.366-1.415.561-2.8.561H4.91c-1.385 0-2.127-.195-2.8-.56A3.783 3.783 0 01.55 12.351c-.359-.685-.55-1.44-.55-2.85V5.497c0-1.41.191-2.166.55-2.85A3.783 3.783 0 012.11 1.06C2.783.695 3.526.5 4.91.5zm-.098 2.8v3.5h1.375V3.3H4.813z" fill="#fff"/></svg><svg fill="none" viewBox="0 0 15 15" id="i-search" xmlns="http://www.w3.org/2000/svg"><path d="M11.837 10.793L15 13.955 13.955 15l-3.162-3.163a6.616 6.616 0 01-4.147 1.454A6.648 6.648 0 010 6.646 6.648 6.648 0 016.646 0a6.648 6.648 0 016.645 6.646 6.616 6.616 0 01-1.454 4.147zm-1.48-.548a5.152 5.152 0 001.458-3.6 5.167 5.167 0 00-5.17-5.168 5.167 5.167 0 00-5.168 5.169 5.167 5.167 0 005.169 5.169 5.152 5.152 0 003.6-1.459l.11-.11z" fill="#686868"/></svg><svg fill="none" viewBox="0 0 10 19" id="social-i-fb" xmlns="http://www.w3.org/2000/svg"><path d="M9.835 0H7.153a4.452 4.452 0 00-3.161 1.32 4.527 4.527 0 00-1.31 3.188v2.704H0v3.606h2.682v7.213H6.26v-7.213H8.94l.894-3.606H6.259V4.508c0-.24.094-.469.261-.638a.89.89 0 01.633-.264h2.682V0z" fill="#fff"/></svg><svg fill="none" viewBox="0 0 18 18" id="social-i-inst" xmlns="http://www.w3.org/2000/svg"><path d="M13.205.839H5.02A4.093 4.093 0 00.927 4.93v8.185A4.092 4.092 0 005.02 17.21h8.185a4.092 4.092 0 004.092-4.093V4.931A4.092 4.092 0 0013.205.84z" fill="#fff" stroke="#fff" stroke-opacity=".8" stroke-linecap="round" stroke-linejoin="round"/><path d="M12.386 8.508a3.274 3.274 0 11-6.477.96 3.274 3.274 0 016.477-.96z" fill="#fff" stroke="#939393" stroke-linecap="round" stroke-linejoin="round"/><path d="M13.614 4.522h.008" stroke="#939393" stroke-linecap="round" stroke-linejoin="round"/></svg><svg fill="none" viewBox="0 0 23 17" id="social-i-tube" xmlns="http://www.w3.org/2000/svg"><path d="M21.303 3.007a2.675 2.675 0 00-1.867-1.925C17.78.677 11.157.677 11.157.677s-6.622 0-8.278.443A2.676 2.676 0 001.01 3.045 27.916 27.916 0 00.57 8.137c-.011 1.72.137 3.438.442 5.131a2.676 2.676 0 001.868 1.848c1.656.443 8.278.443 8.278.443s6.623 0 8.279-.443a2.676 2.676 0 001.867-1.925c.3-1.668.45-3.359.443-5.054.01-1.72-.137-3.437-.443-5.13z" fill="#fff" stroke="#fff" stroke-opacity=".8" stroke-linecap="round" stroke-linejoin="round"/><path d="M8.992 11.285l5.534-3.148L8.992 4.99v6.295z" stroke="#939393" stroke-linecap="round" stroke-linejoin="round"/></svg><svg fill="none" viewBox="0 0 21 18" id="social-i-tw" xmlns="http://www.w3.org/2000/svg"><path d="M20.602.848a9.661 9.661 0 01-2.808 1.397 3.993 3.993 0 00-2.05-1.284 3.925 3.925 0 00-2.4.147 4.02 4.02 0 00-1.886 1.525 4.156 4.156 0 00-.691 2.353v.913a9.363 9.363 0 01-4.532-1.036A9.593 9.593 0 012.72 1.761S-.856 9.983 7.19 13.637a10.246 10.246 0 01-6.258 1.827c8.047 4.567 17.881 0 17.881-10.505 0-.255-.024-.509-.071-.759a7.093 7.093 0 001.86-3.352z" fill="#fff"/></svg></svg>